<svg xmlns="http://www.w3.org/2000/svg" x="0px" y="0px"
width="64" height="64"
viewBox="0 0 172 172"
style=" fill:#000000;"><g fill="none" fill-rule="nonzero" stroke="none" stroke-width="1" stroke-linecap="butt" stroke-linejoin="miter" stroke-miterlimit="10" stroke-dasharray="" stroke-dashoffset="0" font-family="none" font-weight="none" font-size="none" text-anchor="none" style="mix-blend-mode: normal"><path d="M0,172v-172h172v172z" fill="#000000"></path><g id="Layer_1"><path d="M139.75,166.625c14.84844,0 26.875,-12.02656 26.875,-26.875v-107.5c0,-14.84844 -12.02656,-26.875 -26.875,-26.875h-107.5c-14.84844,0 -26.875,12.02656 -26.875,26.875v107.5c0,14.84844 12.02656,26.875 26.875,26.875z" fill="#f8efd4"></path><path d="M48.375,29.5625h-13.4375c-2.23063,0 -4.03125,-1.80062 -4.03125,-4.03125c0,-2.23062 1.80062,-4.03125 4.03125,-4.03125h13.4375c2.23062,0 4.03125,1.80063 4.03125,4.03125c0,2.23063 -1.80063,4.03125 -4.03125,4.03125z" fill="#000000"></path><path d="M137.0625,29.5625h-51.0625c-2.23062,0 -4.03125,-1.80062 -4.03125,-4.03125c0,-2.23062 1.80063,-4.03125 4.03125,-4.03125h51.0625c2.23063,0 4.03125,1.80063 4.03125,4.03125c0,2.23063 -1.80062,4.03125 -4.03125,4.03125z" fill="#000000"></path><path d="M139.75,1.34375h-107.5c-17.03875,0 -30.90625,13.8675 -30.90625,30.90625v107.5c0,17.03875 13.8675,30.90625 30.90625,30.90625h107.5c17.03875,0 30.90625,-13.8675 30.90625,-30.90625v-107.5c0,-17.03875 -13.8675,-30.90625 -30.90625,-30.90625zM32.25,9.40625h107.5c12.59094,0 22.84375,10.25281 22.84375,22.84375v9.40625h-153.1875v-9.40625c0,-12.59094 10.25281,-22.84375 22.84375,-22.84375zM139.75,162.59375h-107.5c-12.59094,0 -22.84375,-10.25281 -22.84375,-22.84375v-90.03125h153.1875v90.03125c0,12.59094 -10.25281,22.84375 -22.84375,22.84375z" fill="#000000"></path></g></g></svg>